HIERARCHY
ROOT hip
{
  OFFSET 0 0 0
  CHANNELS 6 Xposition Yposition Zposition Zrotation Yrotation Xrotation
  JOINT abdomen
  {
    OFFSET 0 20.6881 -0.73152
    CHANNELS 3 Zrotation Xrotation Yrotation
    JOINT chest
    {
      OFFSET 0 11.7043 -0.48768
      CHANNELS 3 Zrotation Xrotation Yrotation
      JOINT neck
      {
        OFFSET 0 22.1894 -2.19456
        CHANNELS 3 Zrotation Xrotation Yrotation
        JOINT head
        {
          OFFSET -0.24384 7.07133 1.2192
          CHANNELS 3 Zrotation Xrotation Yrotation
          JOINT leftEye
          {
            OFFSET 4.14528 8.04674 8.04672
            CHANNELS 3 Zrotation Xrotation Yrotation
            End Site
            {
              OFFSET 1 0 0
            }
          }
          JOINT rightEye
          {
            OFFSET -3.6576 8.04674 8.04672
            CHANNELS 3 Zrotation Xrotation Yrotation
            End Site
            {
              OFFSET 1 0 0
            }
          }
        }
      }
      JOINT rCollar
      {
        OFFSET -2.68224 19.2634 -4.8768
        CHANNELS 3 Zrotation Xrotation Yrotation
        JOINT rShldr
        {
          OFFSET -8.77824 -1.95073 1.46304
          CHANNELS 3 Zrotation Xrotation Yrotation
          JOINT rForeArm
          {
            OFFSET -28.1742 -1.7115 0.48768
            CHANNELS 3 Zrotation Xrotation Yrotation
            JOINT rHand
            {
              OFFSET -22.5879 0.773209 7.07136
              CHANNELS 3 Zrotation Xrotation Yrotation
              JOINT rThumb1
              {
                OFFSET -1.2192 -0.487915 3.41376
                CHANNELS 3 Zrotation Xrotation Yrotation
                JOINT rThumb2
                {
                  OFFSET -3.37035 -0.52449 3.41376
                  CHANNELS 3 Zrotation Xrotation Yrotation
                  End Site
                  {
                    OFFSET -1.78271 -1.18214 1.43049
                  }
                }
              }
              JOINT rIndex1
              {
                OFFSET -7.75947 0.938293 5.60832
                CHANNELS 3 Zrotation Xrotation Yrotation
                JOINT rIndex2
                {
                  OFFSET -2.54057 -0.884171 1.56538
                  CHANNELS 3 Zrotation Xrotation Yrotation
                  End Site
                  {
                    OFFSET -1.62519 -0.234802 1.16502
                  }
                }
              }
              JOINT rMid1
              {
                OFFSET -8.24714 1.18213 3.41376
                CHANNELS 3 Zrotation Xrotation Yrotation
                JOINT rMid2
                {
                  OFFSET -3.10165 -0.590103 1.0647
                  CHANNELS 3 Zrotation Xrotation Yrotation
                  End Site
                  {
                    OFFSET -2.48547 -0.328903 0.83742
                  }
                }
              }
              JOINT rRing1
              {
                OFFSET -8.82822 0.546677 1.51678
                CHANNELS 3 Zrotation Xrotation Yrotation
                JOINT rRing2
                {
                  OFFSET -2.60934 -0.819778 -0.0198488
                  CHANNELS 3 Zrotation Xrotation Yrotation
                  End Site
                  {
                    OFFSET -2.33842 -0.294052 0.168128
                  }
                }
              }
              JOINT rPinky1
              {
                OFFSET -8.27202 -0.0477905 -0.4584
                CHANNELS 3 Zrotation Xrotation Yrotation
                JOINT rPinky2
                {
                  OFFSET -1.82734 -0.647385 -0.700984
                  CHANNELS 3 Zrotation Xrotation Yrotation
                  End Site
                  {
                    OFFSET -1.69225 -0.51767 -0.607171
                  }
                }
              }
            }
          }
        }
      }
      JOINT lCollar
      {
        OFFSET 2.68224 19.2634 -4.8768
        CHANNELS 3 Zrotation Xrotation Yrotation
        JOINT lShldr
        {
          OFFSET 8.77824 -1.95073 1.46304
          CHANNELS 3 Zrotation Xrotation Yrotation
          JOINT lForeArm
          {
            OFFSET 28.1742 -1.7115 0.48768
            CHANNELS 3 Zrotation Xrotation Yrotation
            JOINT lHand
            {
              OFFSET 22.5879 0.773209 7.07136
              CHANNELS 3 Zrotation Xrotation Yrotation
              JOINT lThumb1
              {
                OFFSET 1.2192 -0.487915 3.41376
                CHANNELS 3 Zrotation Xrotation Yrotation
                JOINT lThumb2
                {
                  OFFSET 3.37035 -0.52449 3.41376
                  CHANNELS 3 Zrotation Xrotation Yrotation
                  End Site
                  {
                    OFFSET 1.78271 -1.18214 1.43049
                  }
                }
              }
              JOINT lIndex1
              {
                OFFSET 7.75947 0.938293 5.60832
                CHANNELS 3 Zrotation Xrotation Yrotation
                JOINT lIndex2
                {
                  OFFSET 2.54057 -0.884171 1.56538
                  CHANNELS 3 Zrotation Xrotation Yrotation
                  End Site
                  {
                    OFFSET 1.62519 -0.234802 1.16502
                  }
                }
              }
              JOINT lMid1
              {
                OFFSET 8.24714 1.18213 3.41376
                CHANNELS 3 Zrotation Xrotation Yrotation
                JOINT lMid2
                {
                  OFFSET 3.10165 -0.590103 1.0647
                  CHANNELS 3 Zrotation Xrotation Yrotation
                  End Site
                  {
                    OFFSET 2.48547 -0.328903 0.83742
                  }
                }
              }
              JOINT lRing1
              {
                OFFSET 8.82822 0.546677 1.51678
                CHANNELS 3 Zrotation Xrotation Yrotation
                JOINT lRing2
                {
                  OFFSET 2.60934 -0.819778 -0.0198488
                  CHANNELS 3 Zrotation Xrotation Yrotation
                  End Site
                  {
                    OFFSET 2.33842 -0.294052 0.168128
                  }
                }
              }
              JOINT lPinky1
              {
                OFFSET 8.27202 -0.0477905 -0.4584
                CHANNELS 3 Zrotation Xrotation Yrotation
                JOINT lPinky2
                {
                  OFFSET 1.82734 -0.647385 -0.700984
                  CHANNELS 3 Zrotation Xrotation Yrotation
                  End Site
                  {
                    OFFSET 1.69225 -0.51767 -0.607171
                  }
                }
              }
            }
          }
        }
      }
    }
  }
  JOINT rButtock
  {
    OFFSET -8.77824 4.35084 1.2192
    CHANNELS 3 Zrotation Xrotation Yrotation
    JOINT rThigh
    {
      OFFSET 0 -1.70687 -2.19456
      CHANNELS 3 Zrotation Xrotation Yrotation
      JOINT rShin
      {
        OFFSET 0 -36.8199 0.73152
        CHANNELS 3 Zrotation Xrotation Yrotation
        JOINT rFoot
        {
          OFFSET 0.73152 -45.1104 -5.12064
          CHANNELS 3 Zrotation Xrotation Yrotation
          End Site
          {
            OFFSET -1.1221 -3.69964 12.103
          }
        }
      }
    }
  }
  JOINT lButtock
  {
    OFFSET 8.77824 4.35084 1.2192
    CHANNELS 3 Zrotation Xrotation Yrotation
    JOINT lThigh
    {
      OFFSET 0 -1.70687 -2.19456
      CHANNELS 3 Zrotation Xrotation Yrotation
      JOINT lShin
      {
        OFFSET 0 -36.8199 0.73152
        CHANNELS 3 Zrotation Xrotation Yrotation
        JOINT lFoot
        {
          OFFSET -0.73152 -45.1104 -5.12064
          CHANNELS 3 Zrotation Xrotation Yrotation
          End Site
          {
            OFFSET 1.1221 -3.69964 12.103
          }
        }
      }
    }
  }
}
MOTION
Frames:	7
Frame Time:	0.00833333
41.7724 16.2239 -80.5673 0.7353 -2.7399 -31.5405 0.11876 49.0163 4.04873 1.94063 -2.67281 1.28471 -9.29283 -6.29482 -3.6772 10.4673 -21.9342 -1.77355 -0.0 0.0 0.0 -0.0 0.0 0.0 3.55992e-14 6.36088e-14 -2.75317e-14 32.1885 34.9623 59.179 -23.8798 -18.8742 49.2312 -0.124564 10.0129 1.42187 -6.19179e-10 -3.28449e-09 3.57965e-10 -1.06773e-09 -5.69507e-09 6.27011e-10 -6.19178e-10 -3.2845e-09 3.57949e-10 7.73091 5.47488 0.417314 -6.19182e-10 -3.28448e-09 3.57965e-10 2.90554 0.965183 0.102902 -6.19178e-10 -3.28448e-09 3.57963e-10 10.2786 0.731801 0.0259123 -6.19193e-10 -3.28448e-09 3.57962e-10 2.22167 -0.733487 -0.20892 3.5568e-14 6.36138e-14 -2.77305e-14 -28.3227 35.7106 -66.3822 22.7553 -16.935 -45.883 2.49828 40.1976 -6.82032 2.15804e-10 -7.75696e-10 6.40723e-11 3.75352e-10 -1.35771e-09 1.03307e-10 2.15803e-10 -7.75694e-10 6.40882e-11 -7.73091 5.47488 -0.417314 2.15804e-10 -7.75696e-10 6.40786e-11 -2.90554 0.965183 -0.102902 2.15794e-10 -7.75695e-10 6.4081e-11 -10.2786 0.731801 -0.0259123 2.15808e-10 -7.75693e-10 6.40786e-11 -2.22167 -0.733487 0.20892 -2.03217e-16 0.0 -3.88251e-19 -44.0824 -37.9542 -23.7976 4.24901 87.4978 6.71333 8.85979 -11.4997 6.41545 2.03217e-16 0.0 3.88251e-19 45.6175 -35.1797 20.3553 -2.53327 87.2563 -7.87584 -8.11955 -16.5315 -17.3787
41.7882 16.3022 -80.6224 0.7804 -2.6727 -31.6477 -0.0142699 49.031 4.08664 2.00578 -2.59208 1.28007 -9.24117 -6.01764 -3.70854 10.3889 -22.2981 -1.88468 -0.0 0.0 0.0 -0.0 0.0 0.0 1.51605e-14 7.84797e-14 -1.64758e-14 32.62 34.9279 58.7727 -23.8823 -18.8787 49.2393 -0.130515 10.2462 1.45572 -5.53573e-10 -2.97258e-09 3.24609e-10 -9.54678e-10 -5.15501e-09 5.68594e-10 -5.53571e-10 -2.97259e-09 3.24594e-10 7.73091 5.47488 0.417314 -5.53577e-10 -2.97258e-09 3.2461e-10 2.90554 0.965183 0.102902 -5.53572e-10 -2.97257e-09 3.24607e-10 10.2786 0.731801 0.0259123 -5.53586e-10 -2.97257e-09 3.24607e-10 2.22167 -0.733487 -0.20892 1.52033e-14 7.84864e-14 -1.66688e-14 -28.297 35.7682 -66.3923 22.6975 -16.8422 -45.7159 2.56009 40.5917 -6.91616 3.07065e-10 -1.0332e-09 1.89689e-10 5.36908e-10 -1.82077e-09 3.16473e-10 3.07067e-10 -1.03321e-09 1.89704e-10 -7.73091 5.47488 -0.417314 3.07065e-10 -1.0332e-09 1.89694e-10 -2.90554 0.965183 -0.102902 3.07056e-10 -1.0332e-09 1.89696e-10 -10.2786 0.731801 -0.0259123 3.07068e-10 -1.0332e-09 1.89692e-10 -2.22167 -0.733487 0.20892 -2.03217e-16 0.0 -3.88251e-19 -44.1702 -37.7194 -23.8569 4.12584 87.4266 6.82215 8.8387 -11.4315 6.45331 2.03217e-16 0.0 3.88251e-19 45.4473 -35.0969 20.3152 -2.4827 87.1756 -7.92079 -8.09905 -16.4349 -17.4864
41.7944 16.3813 -80.68 0.8326 -2.5517 -31.7801 -0.215797 49.0206 4.13652 2.12655 -2.47116 1.27103 -9.21292 -5.66472 -3.73737 10.3397 -22.7919 -1.97602 -0.0 0.0 0.0 -0.0 0.0 0.0 -1.69518e-14 9.84945e-14 -2.0686e-15 32.9573 34.8863 58.4176 -23.8887 -18.8905 49.2603 -0.136487 10.4759 1.48909 -4.71499e-10 -2.46716e-09 2.49777e-10 -8.13658e-10 -4.28127e-09 4.38187e-10 -4.71495e-10 -2.46717e-09 2.49766e-10 7.73091 5.47488 0.417314 -4.71504e-10 -2.46718e-09 2.49779e-10 2.90554 0.965183 0.102902 -4.71496e-10 -2.46717e-09 2.49776e-10 10.2786 0.731801 0.0259123 -4.71508e-10 -2.46716e-09 2.49777e-10 2.22167 -0.733487 -0.20892 -1.68179e-14 9.85024e-14 -2.25807e-15 -28.2397 35.7734 -66.4896 22.6084 -16.6998 -45.463 2.63629 41.0646 -7.03292 4.74367e-10 -1.45355e-09 4.75896e-10 8.34768e-10 -2.58567e-09 8.03945e-10 4.74369e-10 -1.45356e-09 4.75906e-10 -7.73091 5.47488 -0.417314 4.74368e-10 -1.45355e-09 4.75897e-10 -2.90554 0.965183 -0.102902 4.7436e-10 -1.45355e-09 4.75899e-10 -10.2786 0.731801 -0.0259123 4.74369e-10 -1.45355e-09 4.75891e-10 -2.22167 -0.733487 0.20892 -2.03217e-16 0.0 -3.88251e-19 -44.3058 -37.477 -23.9188 4.01578 87.3569 6.91969 8.81826 -11.3615 6.43207 2.03217e-16 0.0 3.88251e-19 45.2331 -35.0128 20.2876 -2.44822 87.092 -7.95489 -8.0719 -16.3229 -17.5648
41.8105 16.4478 -80.6753 0.9884 -2.3314 -32.0053 -0.408976 49.006 4.1812 2.25987 -2.34141 1.26175 -9.20489 -5.30269 -3.76522 10.3003 -23.3205 -2.0543 -0.0 0.0 0.0 -0.0 0.0 0.0 -4.65901e-14 1.08222e-13 1.1236e-14 33.2026 34.8414 58.1229 -23.8884 -18.89 49.2595 -0.142253 10.692 1.52052 -3.04725e-10 -1.6297e-09 1.66879e-10 -5.26173e-10 -2.8299e-09 2.92859e-10 -3.0472e-10 -1.6297e-09 1.66872e-10 7.73091 5.47488 0.417314 -3.04731e-10 -1.62972e-09 1.66883e-10 2.90554 0.965183 0.102902 -3.0472e-10 -1.6297e-09 1.66877e-10 10.2786 0.731801 0.0259123 -3.04731e-10 -1.6297e-09 1.66881e-10 2.22167 -0.733487 -0.20892 -4.63806e-14 1.08231e-13 1.10454e-14 -28.1489 35.7572 -66.6327 22.5112 -16.5452 -45.1918 2.71483 41.5372 -7.1517 5.94337e-10 -1.73479e-09 7.01104e-10 1.04876e-09 -3.10049e-09 1.18801e-09 5.94338e-10 -1.73481e-09 7.01109e-10 -7.73091 5.47488 -0.417314 5.94337e-10 -1.73478e-09 7.01102e-10 -2.90554 0.965183 -0.102902 5.94331e-10 -1.73478e-09 7.01103e-10 -10.2786 0.731801 -0.0259123 5.94337e-10 -1.73478e-09 7.01092e-10 -2.22167 -0.733487 0.20892 -2.03217e-16 0.0 -3.88251e-19 -44.4413 -37.239 -23.988 3.92079 87.2948 7.00246 8.79853 -11.2931 6.40216 2.03217e-16 0.0 3.88251e-19 45.0319 -34.926 20.2794 -2.41744 87.0132 -7.98497 -8.04617 -16.214 -17.6402
41.8086 16.5001 -80.6632 0.9853 -2.2567 -32.1681 -0.517073 49.0083 4.20355 2.36262 -2.23423 1.25639 -9.21399 -4.99818 -3.79355 10.2517 -23.7886 -2.12594 -0.0 0.0 0.0 -0.0 0.0 0.0 -5.96067e-14 9.22326e-14 1.89839e-14 33.3581 34.7968 57.8977 -23.8705 -18.8573 49.2026 -0.147539 10.8843 1.54855 1.49804e-11 -3.21618e-10 1.09325e-10 2.62658e-11 -5.56956e-10 1.89676e-10 1.49864e-11 -3.2162e-10 1.09319e-10 7.73091 5.47488 0.417314 1.49737e-11 -3.21642e-10 1.09328e-10 2.90554 0.965183 0.102902 1.49866e-11 -3.21623e-10 1.09322e-10 10.2786 0.731801 0.0259123 1.49756e-11 -3.21622e-10 1.09328e-10 2.22167 -0.733487 -0.20892 -5.93699e-14 9.22411e-14 1.87852e-14 -28.0225 35.751 -66.7806 22.4303 -16.4174 -44.969 2.78203 41.931 -7.25222 5.43601e-10 -1.57495e-09 6.43725e-10 9.58705e-10 -2.81332e-09 1.09096e-09 5.43601e-10 -1.57498e-09 6.43728e-10 -7.73091 5.47488 -0.417314 5.43601e-10 -1.57495e-09 6.43722e-10 -2.90554 0.965183 -0.102902 5.43596e-10 -1.57495e-09 6.43722e-10 -10.2786 0.731801 -0.0259123 5.436e-10 -1.57495e-09 6.43709e-10 -2.22167 -0.733487 0.20892 -2.03217e-16 0.0 -3.88251e-19 -44.5292 -37.0174 -24.0694 3.84194 87.2462 7.0679 8.77935 -11.23 6.41396 2.03217e-16 0.0 3.88251e-19 44.9004 -34.8352 20.2977 -2.37833 86.9471 -8.01745 -8.02985 -16.1266 -17.7391
41.7767 16.52 -80.7062 0.7868 -2.3776 -32.3152 -0.495889 49.0508 4.18417 2.42959 -2.1555 1.25516 -9.23901 -4.78503 -3.82582 10.1552 -24.1792 -2.20324 -0.0 0.0 0.0 -0.0 0.0 0.0 -4.52589e-14 3.30449e-14 1.79811e-14 33.382 34.7511 57.7741 -23.8259 -18.7758 49.0614 -0.151112 11.0055 1.56627 6.47715e-10 2.03763e-09 7.42058e-11 1.12068e-09 3.54824e-09 1.21869e-10 6.47721e-10 2.03763e-09 7.4196e-11 7.73091 5.47488 0.417314 6.47708e-10 2.03761e-09 7.42058e-11 2.90554 0.965183 0.102902 6.47723e-10 2.03763e-09 7.41996e-11 10.2786 0.731801 0.0259123 6.47711e-10 2.03763e-09 7.42073e-11 2.22167 -0.733487 -0.20892 -4.50685e-14 3.30523e-14 1.77598e-14 -27.8447 35.7516 -66.9414 22.3767 -16.3333 -44.8218 2.83197 42.2191 -7.32651 1.86481e-10 -6.09608e-10 9.60164e-11 3.23473e-10 -1.06461e-09 1.59446e-10 1.8648e-10 -6.09636e-10 9.60217e-11 -7.73091 5.47488 -0.417314 1.86482e-10 -6.09606e-10 9.60147e-11 -2.90554 0.965183 -0.102902 1.86477e-10 -6.09613e-10 9.6014e-11 -10.2786 0.731801 -0.0259123 1.86481e-10 -6.09606e-10 9.6001e-11 -2.22167 -0.733487 0.20892 -2.03217e-16 0.0 -3.88251e-19 -44.5435 -36.7994 -24.1628 3.78028 87.2137 7.11396 8.7591 -11.1695 6.48646 2.03217e-16 0.0 3.88251e-19 44.8539 -34.7334 20.3358 -2.32456 86.8976 -8.05562 -8.02627 -16.0688 -17.8622
41.7455 16.5479 -80.757 0.6143 -2.423 -32.4624 -0.394139 49.1162 4.13703 2.48165 -2.08933 1.25613 -9.28183 -4.62233 -3.86019 10.0325 -24.5403 -2.27905 -0.0 0.0 0.0 -0.0 0.0 0.0 -1.34154e-14 -5.6656e-14 1.12717e-14 33.2878 34.7047 57.7373 -23.7616 -18.6588 48.8611 -0.153333 11.0757 1.57658 1.50979e-09 5.19296e-09 4.76419e-11 2.61206e-09 9.04036e-09 6.63311e-11 1.50979e-09 5.19296e-09 4.7626e-11 7.73091 5.47488 0.417314 1.50978e-09 5.19295e-09 4.76368e-11 2.90554 0.965183 0.102902 1.5098e-09 5.19297e-09 4.76315e-11 10.2786 0.731801 0.0259123 1.50978e-09 5.19296e-09 4.76401e-11 2.22167 -0.733487 -0.20892 -1.3322e-14 -5.66506e-14 1.1017e-14 -27.6218 35.7457 -67.1303 22.3366 -16.2707 -44.7112 2.87149 42.4456 -7.38523 -3.76963e-10 9.05567e-10 -7.74291e-10 -6.78703e-10 1.6805e-09 -1.32087e-09 -3.76965e-10 9.05537e-10 -7.74281e-10 -7.73091 5.47488 -0.417314 -3.76963e-10 9.05568e-10 -7.7429e-10 -2.90554 0.965183 -0.102902 -3.76968e-10 9.05552e-10 -7.74291e-10 -10.2786 0.731801 -0.0259123 -3.76961e-10 9.05569e-10 -7.74304e-10 -2.22167 -0.733487 0.20892 -2.03217e-16 0.0 -3.88251e-19 -44.5138 -36.584 -24.2659 3.73226 87.1938 7.14517 8.73822 -11.1108 6.59089 2.03217e-16 0.0 3.88251e-19 44.8618 -34.6237 20.3927 -2.263 86.8599 -8.0961 -8.03088 -16.0297 -17.9975
